<?xml version="1.0" encoding="utf-8"?><svg viewBox="0 0 1306 331" xmlns="http://www.w3.org/2000/svg" xmlns:xlink="http://www.w3.org/1999/xlink"><style>:root>svg{display:none}:root>svg:target{display:block}</style><svg viewBox="0 0 17 17" id="btnred" xmlns="http://www.w3.org/2000/svg"><rect x=".231" y=".719" width="16" height="16" rx="8" fill-opacity=".6"/><path d="M7.242 6.74L9.22 8.72l-1.98 1.978"/></svg><svg viewBox="0 0 1306 328" id="group" xmlns="http://www.w3.org/2000/svg"><path d="M-24.387 326.979l87.228-77.296v-70.386h95.001l92.409-60.024h63.478m676.231.864h98.46l107.52 79.455h82.04v76.001l65.21 31.954"/><path d="M-71.229 196.135l108.404-42.801L61.25 87.192l89.271 32.492 107.366-24.797 59.649 21.71"/></svg><svg viewBox="0 0 1306 331" id="group1" xmlns="http://www.w3.org/2000/svg"><path d="M-24.387 329.979l87.228-77.296v-70.386h95.001l92.409-60.024h63.478m676.231.864h98.46l107.52 79.455h82.04v76.001l65.21 31.954"/><path d="M-71.229 199.135l108.404-42.801L61.25 90.192l89.271 32.492 107.366-24.797 59.649 21.71m678.468 1.715l92.516-33.674 128.22 37.888 77.09-28.061 26 71.417 72.2 7.726"/></svg><svg viewBox="0 0 11 7" id="polygon" xmlns="http://www.w3.org/2000/svg"><path d="M10.364 3.453L0 6.476l1.727-3.023L0 .43l10.364 3.023z"/></svg><svg viewBox="0 0 318 111" id="vector384" xmlns="http://www.w3.org/2000/svg"><path d="M-71.229 110.135L37.175 67.334 61.25 1.192l89.271 32.492L257.886 8.887l59.649 21.71"/></svg></svg>